# xmcd
#
# Track frame offsets:
#  150
#  26727
#  64745
#  93837
#  125560
#  177774
#  196102
#  220862
#  239165
#  269123
#
# Disc length: 4067 seconds
#
# Revision: 0
# Processed by: cddbd v1.5.1PL2 Copyright (c) Steve Scherf et al.
# Submitted via: Collectorz.com_Music_Collector 6.10
#
DISCID=940fe10a
DTITLE=Bruce Springsteen - Antwerp 96 - Are You Experienced? [CD2)
DYEAR=1996
DGENRE=Alt Country
TTITLE0=Youngstown
TTITLE1=Sinaloa Cowboys
TTITLE2=The Line
TTITLE3=Balboa Park
TTITLE4=Across The Border
TTITLE5=Bobby Jean
TTITLE6=This Hard Land
TTITLE7=Streets Of Philadelphia
TTITLE8=Galveston Bay
TTITLE9=The Promised Land
EXTD=
EXTT0=
EXTT1=
EXTT2=
EXTT3=
EXTT4=
EXTT5=
EXTT6=
EXTT7=
EXTT8=
EXTT9=
PLAYORDER=
